<?xml version="1.0" standalone="no"?>
<!DOCTYPE svg PUBLIC "-//W3C//DTD SVG 20010904//EN"
 "http://www.w3.org/TR/2001/REC-SVG-20010904/DTD/svg10.dtd">
<svg version="1.0" xmlns="http://www.w3.org/2000/svg"
 width="232.000000pt" height="232.000000pt" viewBox="0 0 232.000000 232.000000"
 preserveAspectRatio="xMidYMid meet">
<metadata>
Created by potrace 1.11, written by Peter Selinger 2001-2013
</metadata>
<g transform="translate(0.000000,232.000000) scale(0.100000,-0.100000)"
fill="#000000" stroke="none">
<path d="M1090 1670 l0 -650 70 0 70 0 0 650 0 650 -70 0 -70 0 0 -650z"/>
<path d="M750 1603 l0 -583 70 0 c60 0 70 3 71 18 1 22 1 1112 0 1133 -1 13
-14 15 -71 15 l-70 0 0 -583z"/>
<path d="M1427 2154 c-2 -2 0 -1057 2 -1111 1 -22 5 -23 71 -23 l70 0 0 569 0
570 -70 -2 c-39 0 -72 -2 -73 -3z"/>
<path d="M410 1405 l0 -385 69 0 c46 0 70 4 73 13 3 10 2 726 -1 750 -1 4 -32
7 -71 7 l-70 0 0 -385z"/>
<path d="M1765 1300 l0 -280 73 0 72 0 0 280 0 280 -72 0 -73 0 0 -280z"/>
<path d="M425 482 c-16 -4 -17 -14 -12 -105 9 -163 45 -232 135 -256 20 -6
127 -11 236 -11 224 -2 250 -8 303 -75 24 -30 34 -35 71 -35 37 0 47 5 79 41
56 62 74 66 289 68 207 2 232 4 281 28 66 31 99 115 102 261 2 68 -1 82 -13
83 -9 0 -34 1 -56 1 -73 0 -70 2 -70 -51 0 -65 -14 -99 -42 -106 -13 -3 -111
-7 -218 -8 -177 -3 -200 -5 -245 -26 -27 -12 -62 -34 -77 -48 l-26 -25 -39 30
c-73 59 -100 65 -308 68 -211 3 -250 7 -259 30 -3 9 -6 42 -6 75 0 40 -4 59
-12 60 -66 3 -98 3 -113 1z"/>
</g>
</svg>
