<?xml version="1.0" encoding="UTF-8" standalone="no"?>
<!-- Created with Inkscape (http://www.inkscape.org/) -->

<svg
   xmlns:dc="http://purl.org/dc/elements/1.1/"
   xmlns:cc="http://creativecommons.org/ns#"
   xmlns:rdf="http://www.w3.org/1999/02/22-rdf-syntax-ns#"
   xmlns:svg="http://www.w3.org/2000/svg"
   xmlns="http://www.w3.org/2000/svg"
   xmlns:sodipodi="http://sodipodi.sourceforge.net/DTD/sodipodi-0.dtd"
   xmlns:inkscape="http://www.inkscape.org/namespaces/inkscape"
   width="90.355797"
   height="140.25485"
   id="svg3050"
   version="1.1"
   inkscape:version="0.48.4 r9939"
   sodipodi:docname="logo-short.svg">
  <defs
     id="defs3052" />
  <sodipodi:namedview
     id="base"
     pagecolor="#ffffff"
     bordercolor="#666666"
     borderopacity="1.0"
     inkscape:pageopacity="0.0"
     inkscape:pageshadow="2"
     inkscape:zoom="0.98994949"
     inkscape:cx="-176.80822"
     inkscape:cy="214.06986"
     inkscape:document-units="px"
     inkscape:current-layer="layer1"
     showgrid="false"
     inkscape:window-width="1280"
     inkscape:window-height="775"
     inkscape:window-x="0"
     inkscape:window-y="0"
     inkscape:window-maximized="1"
     fit-margin-top="0"
     fit-margin-left="0"
     fit-margin-right="0"
     fit-margin-bottom="0" />
  <metadata
     id="metadata3055">
    <rdf:RDF>
      <cc:Work
         rdf:about="">
        <dc:format>image/svg+xml</dc:format>
        <dc:type
           rdf:resource="http://purl.org/dc/dcmitype/StillImage" />
        <dc:title></dc:title>
      </cc:Work>
    </rdf:RDF>
  </metadata>
  <g
     inkscape:label="Layer 1"
     inkscape:groupmode="layer"
     id="layer1"
     transform="translate(-497.67924,-422.23476)">
    <g
       id="g3075">
      <path
         d="m 579.54049,538.35926 0,-5.0235 8.49375,0 0,5.0235 c 0,14.86863 -5.50375,17.46875 -14.18875,17.46875 l -16.7025,0 c -5.8875,0 -8.2025,1.6435 -11.68125,6.6616 l -5.21375,0 c -3.57,-5.0181 -5.8825,-6.6616 -11.87375,-6.6616 l -16.6975,0 c -8.8825,0 -13.995,-2.60012 -13.995,-17.46875 l 0,-5.0235 8.39375,0 0,5.0235 c 0,4.63038 1.5475,4.918 5.60125,4.918 l 16.6975,0 c 6.375,0 10.52375,1.646 14.48375,6.27638 3.76125,-4.53625 8.10875,-6.27638 14.285,-6.27638 l 16.7025,0 c 4.34125,0 5.695,-0.28762 5.695,-4.918"
         style="fill:#992e38;fill-opacity:1;fill-rule:nonzero;stroke:none"
         id="path20"
         inkscape:connector-curvature="0" />
      <path
         d="m 579.33924,500.74451 8.6958,0 0,-33.77788 -8.6958,0 0,33.77788 z"
         style="fill:#992e38;fill-opacity:1;fill-rule:nonzero;stroke:none"
         id="path22"
         inkscape:connector-curvature="0" />
      <path
         d="m 558.92549,500.74301 8.69337,0 0,-68.69975 -8.69337,0 0,68.69975 z"
         style="fill:#992e38;fill-opacity:1;fill-rule:nonzero;stroke:none"
         id="path24"
         inkscape:connector-curvature="0" />
      <path
         d="m 538.50924,500.74301 8.6958,0 0,-78.50825 -8.6958,0 0,78.50825 z"
         style="fill:#992e38;fill-opacity:1;fill-rule:nonzero;stroke:none"
         id="path26"
         inkscape:connector-curvature="0" />
      <path
         d="m 518.09299,500.74301 8.69775,0 0,-70.3745 -8.69775,0 0,70.3745 z"
         style="fill:#992e38;fill-opacity:1;fill-rule:nonzero;stroke:none"
         id="path28"
         inkscape:connector-curvature="0" />
      <path
         d="m 497.67924,500.74301 8.69532,0 0,-46.45463 -8.69532,0 0,46.45463 z"
         style="fill:#992e38;fill-opacity:1;fill-rule:nonzero;stroke:none"
         id="path30"
         inkscape:connector-curvature="0" />
    </g>
  </g>
</svg>
