<svg
   id="pl_map"
   xmlns:dc="http://purl.org/dc/elements/1.1/"
   xmlns:cc="http://web.resource.org/cc/"
   xmlns:rdf="http://www.w3.org/1999/02/22-rdf-syntax-ns#"
   xmlns:svg="http://www.w3.org/2000/svg"
   xmlns="http://www.w3.org/2000/svg"
   xmlns:sodipodi="http://sodipodi.sourceforge.net/DTD/sodipodi-0.dtd"
   xmlns:inkscape="http://www.inkscape.org/namespaces/inkscape"
   xml:space="preserve"
   style="shape-rendering:geometricPrecision; text-rendering:geometricPrecision; image-rendering:optimizeQuality; fill-rule:evenodd; clip-rule:evenodd"
   viewBox="-320 -280 940 850"
   version="1.0">
<metadata
   id="metadata27"><rdf:RDF><cc:Work
       rdf:about=""><dc:format>image/svg+xml</dc:format><dc:type
         rdf:resource="http://purl.org/dc/dcmitype/StillImage" /></cc:Work></rdf:RDF></metadata><sodipodi:namedview
   guidetolerance="10.0"
   gridtolerance="10.0"
   objecttolerance="10.0"
   borderopacity="1.0"
   bordercolor="#666666"
   pagecolor="#ffffff"/>
 <defs
   id="defs4">
  <style
   type="text/css"
   id="style6">
   
    .fil0 {fill:#91ADD1}
    .voivodeship:hover {
        cursor: pointer;
        fill: #A1AD51;
    }

  </style>
 </defs>
 <g
   id="Warstwa_x0020_1"
>
  <metadata
   id="CorelCorpID_0Corel-Layer" />
  <sodipodi:namedview
   guidetolerance="10.0"
   gridtolerance="10.0"
   objecttolerance="10.0"
   borderopacity="1.0"
   bordercolor="#666666"
   pagecolor="#ffffff"
   id="base"/>
  <path
   data-href="{% url "teryt:details" slug="zachodniopomorskie" %}"
   id="szczecinskie"
   class="fil0 voivodeship"

   d="M -19.74,-246.426 C -25.2203,-244.4256 -30.9605,-242.8681 -36.3015,-240.4538 C -43.7597,-235.7779 -51.0786,-230.8036 -58.6255,-226.3177 C -66.8579,-225.6369 -75.0903,-224.9562 -83.3227,-224.2754 C -89.2922,-217.9909 -94.9108,-211.3422 -101.0933,-205.2765 C -109.1438,-198.7577 -117.06,-192.0069 -125.2095,-185.6049 C -165.5866,-174.8452 -206.0626,-164.4531 -246.4305,-153.6626 C -250.1306,-152.5237 -254.0047,-151.8541 -257.5427,-150.3161 C -260.2653,-148.5995 -262.7919,-146.4401 -265.6621,-145.0575 C -268.6401,-145.3109 -271.7381,-144.9595 -274.6414,-145.5949 C -276.5969,-147.014 -278.0459,-149.2582 -280.3382,-150.1177 C -280.6616,-149.0153 -280.1622,-147.6139 -280.3465,-146.4052 C -280.1526,-142.4545 -280.5901,-138.3767 -279.9004,-134.5114 C -278.6125,-132.3919 -276.6485,-130.5348 -275.8779,-128.2069 C -275.7391,-121.3459 -275.771,-114.4502 -275.5261,-107.6107 C -274.9094,-105.9992 -272.8765,-104.1516 -274.3093,-102.4198 C -275.3598,-100.9246 -275.9433,-99.1299 -275.584,-97.3002 C -275.6912,-94.712 -275.7821,-92.0139 -274.3686,-89.7348 C -272.7592,-86.1466 -271.2683,-82.464 -270.9778,-78.5063 C -269.9818,-73.5462 -269.0578,-68.5553 -269.323,-63.475 C -269.318,-60.5719 -269.0013,-57.6023 -269.3249,-54.7354 C -270.6982,-52.3807 -272.7689,-50.3275 -273.6953,-47.7983 C -273.6119,-41.4787 -273.5271,-35.1591 -273.4591,-28.8393 C -279.0721,-23.7709 -284.4253,-18.3797 -290.2197,-13.5333 C -292.2478,-12.2522 -294.276,-10.9711 -296.3042,-9.69 C -296.3042,-5.3603 -296.3042,-1.0305 -296.3042,3.2994 C -292.7698,5.5471 -288.9416,7.4474 -285.603,9.9351 C -280.5958,16.49 -275.8673,23.2942 -270.6582,29.6749 C -266.931,32.4224 -263.2057,35.1725 -259.4775,37.9184 C -257.8314,35.6081 -255.66,33.7108 -254.1279,31.3121 C -253.9039,27.2466 -253.6784,23.1812 -253.4417,19.1165 C -242.1131,16.8159 -230.7988,14.5619 -219.5998,11.6999 C -212.3715,6.2866 -205.4173,0.457 -198.0046,-4.6749 C -194.3529,-6.4984 -190.8036,-8.7285 -187.0478,-10.2936 C -180.8635,-9.7416 -174.6015,-9.5739 -168.465,-8.7854 C -164.4673,-7.1026 -160.4696,-5.4197 -156.4719,-3.7369 C -151.5752,-5.8942 -146.7384,-8.2545 -141.8123,-10.2936 C -134.3847,-10.5086 -126.9571,-10.7236 -119.5294,-10.9385 C -116.8952,-13.1081 -114.6258,-15.9185 -111.716,-17.611 C -107.8409,-17.3795 -103.9659,-17.148 -100.0908,-16.9165 C -93.8109,-21.0987 -87.646,-25.514 -81.2889,-29.5421 C -74.5117,-30.628 -67.7345,-31.7139 -60.9573,-32.7997 C -52.3397,-41.4975 -43.4608,-50.0024 -35.0084,-58.8187 C -28.7201,-68.5343 -22.4318,-78.2498 -16.1435,-87.9654 C -16.0322,-91.365 -15.5061,-94.8686 -15.6541,-98.2033 C -22.0194,-108.5966 -28.6224,-118.8723 -34.838,-129.3313 C -35.3153,-133.4843 -35.8012,-137.6365 -36.2601,-141.7915 C -34.4763,-143.2786 -33.1691,-145.4176 -31.1172,-146.4714 C -27.105,-146.2403 -22.8694,-147.1916 -19.1069,-145.3694 C -14.8311,-143.8874 -10.5553,-142.4054 -6.2795,-140.9234 C -6.6877,-145.4784 -6.2455,-150.2356 -8.2757,-154.4666 C -8.9524,-156.3657 -9.6301,-158.2643 -10.3061,-160.1635 C -7.1558,-164.6421 -4.0058,-169.1208 -0.8555,-173.5994 C -0.8555,-183.1382 -0.8555,-192.677 -0.8555,-202.2158 C -6.8243,-213.6197 -12.8541,-225.0247 -18.8637,-236.3635 C -18.9492,-239.7921 -19.0346,-243.2207 -19.1201,-246.6492 C -19.3267,-246.5748 -19.5335,-246.5004 -19.7402,-246.426 L -19.74,-246.426 z " >
   <title>zachodniopomorskie</title>
 </path>
  <path
    data-href="{% url "teryt:details" slug="pomorskie" %}"
   id="gdanskie"
   class="fil0 voivodeship"
   d="M 60.3296,-260.432 C 49.6384,-260.2243 38.9055,-260.5985 28.2253,-260.2376 C 13.0168,-256.0443 -2.1916,-251.8509 -17.4001,-247.6576 C -17.1816,-243.9467 -17.5206,-240.1336 -16.8997,-236.4873 C -10.8027,-225.391 -4.9248,-214.1237 0.8645,-202.8851 C 0.8645,-192.988 0.8644,-183.0909 0.8645,-173.1939 C -2.209,-168.8258 -5.2815,-164.4571 -8.3546,-160.0887 C -7.002,-155.8173 -4.6848,-151.6898 -4.901,-147.0568 C -4.6646,-145.2967 -4.9046,-143.3154 -4.3771,-141.6904 C -2.2909,-139.6845 -0.2047,-137.6786 1.8814,-135.6727 C 5.4865,-137.0922 8.9535,-139.1605 12.655,-140.1044 C 15.4738,-139.0476 18.5551,-138.4427 21.2043,-137.0534 C 24.1053,-132.6262 27.397,-128.3848 30.0596,-123.8491 C 30.2745,-119.1334 30.4895,-114.4178 30.7045,-109.7021 C 34.0908,-106.7387 37.1105,-103.3373 40.7144,-100.6963 C 47.0102,-98.8034 53.3061,-96.9106 59.602,-95.0178 C 65.4067,-97.2079 71.1678,-99.5647 77.0066,-101.6324 C 79.8591,-101.6324 82.7117,-101.6324 85.5642,-101.6324 C 88.9396,-97.0742 91.9134,-92.1295 95.5306,-87.8198 C 97.8314,-86.5366 99.9008,-84.5439 102.4144,-83.731 C 109.0319,-84.1281 115.6494,-84.5252 122.2669,-84.9223 C 120.8472,-90.2112 119.1627,-95.4681 117.9508,-100.789 C 118.6853,-104.1522 119.3716,-107.5258 120.1254,-110.8845 C 123.535,-111.1031 126.9443,-111.3301 130.3531,-111.5625 C 140.3634,-128.3115 150.1751,-145.1805 159.9864,-162.0483 C 161.2316,-167.1088 162.8329,-172.1673 163.8575,-177.229 C 162.3605,-183.1793 160.8634,-189.1296 159.3663,-195.0799 C 152.3043,-192.6687 145.2962,-190.0762 138.2162,-187.7625 C 128.3871,-187.9344 118.4981,-187.7318 108.707,-188.1428 C 100.1377,-193.1246 91.5844,-198.1345 83.0011,-203.0918 C 80.8914,-211.5467 79.0905,-220.0994 76.7606,-228.4868 C 73.7625,-234.4181 70.3001,-240.2009 67.5725,-246.2271 C 67.8447,-247.7742 67.0708,-249.6794 68.234,-250.9979 C 70.28,-250.6139 78.0634,-247.5087 85.8905,-241.9622 C 95.0044,-235.5037 103.918,-224.7496 104.4209,-227.6398 C 104.6747,-229.0989 96.9449,-237.0629 87.7643,-243.7531 C 78.7094,-250.3516 68.2937,-255.6615 66.0483,-257.2627 C 65.6504,-257.4723 60.7926,-260.4751 60.3296,-260.432 L 60.3296,-260.432 z " >
   <title>pomorskie</title>
 </path>
  <path
   data-href="{% url "teryt:details" slug="warmińsko-mazurskie" %}"
   id="olsztynskie"
   class="fil0 voivodeship"
   d="M 161.218,-195.659 C 162.7286,-189.3461 164.5493,-183.0641 165.8399,-176.7247 C 164.3148,-171.4065 163.2443,-165.9283 161.4322,-160.712 C 151.4906,-143.6162 141.5309,-126.5316 131.4193,-109.5371 C 128.1721,-109.3308 124.9256,-109.1131 121.6794,-108.8922 C 121.169,-105.9786 120.1147,-103.0824 120.0329,-100.1547 C 121.6617,-94.8561 122.757,-89.2823 124.7532,-84.1333 C 128.4322,-80.2038 131.7003,-75.8901 135.0243,-71.6438 C 142.0908,-71.2028 149.1574,-70.7618 156.224,-70.3209 C 160.6099,-72.7102 164.8818,-75.4628 169.3705,-77.5721 C 172.9258,-77.4206 176.482,-77.2884 180.0365,-77.1174 C 185.7309,-67.0072 192.3482,-57.524 198.7723,-47.8726 C 201.9914,-47.5588 205.2108,-47.2477 208.4296,-46.9301 C 211.0257,-43.2671 213.622,-39.6044 216.2183,-35.9416 C 219.1369,-35.5282 222.0556,-35.1148 224.9743,-34.7013 C 231.5505,-39.1246 238.1253,-43.5498 244.7023,-47.9718 C 250.7332,-46.9825 256.7384,-45.6511 262.8838,-45.9273 C 267.7373,-45.9088 272.6788,-45.5304 277.478,-45.7344 C 290.7627,-52.9748 303.9671,-60.3988 317.3056,-67.5179 C 323.0065,-68.0714 328.6905,-68.9724 334.4043,-69.2873 C 340.2883,-67.7607 346.4488,-68.7499 352.4621,-68.4541 C 354.6134,-68.5634 356.9691,-68.1113 358.9766,-68.8782 C 361.1514,-70.2714 363.3263,-71.6645 365.5011,-73.0577 C 365.9766,-75.7275 366.4505,-78.3977 366.915,-81.0696 C 370.4398,-82.0912 374.2607,-82.3989 377.5876,-83.905 C 379.7599,-85.5699 381.9323,-87.2347 384.1046,-88.8996 C 383.6967,-92.0305 383.2889,-95.1614 382.8809,-98.2923 C 380.1387,-100.0637 377.7356,-102.4675 374.77,-103.7992 C 371.3295,-103.9507 367.7087,-103.4381 364.3767,-104.0718 C 363.2526,-105.3655 361.0131,-106.085 360.8316,-107.94 C 361.0037,-110.7975 361.214,-113.7332 362.7858,-116.2087 C 365.0853,-121.5383 367.8537,-126.6987 369.7585,-132.1745 C 370.8805,-138.1004 372.0024,-144.0263 373.1244,-149.9522 C 370.5966,-155.5364 367.6308,-161.006 365.4184,-166.6788 C 366.442,-174.7383 368.7864,-182.5198 370.5696,-190.4169 C 342.1063,-189.682 313.638,-188.6711 285.1778,-188.1134 C 252.341,-192.7024 219.4787,-197.1466 186.6584,-201.8312 C 182.1608,-202.9157 177.6632,-204.0002 173.1656,-205.0847 C 169.183,-201.9428 165.2005,-198.8009 161.218,-195.659 L 161.218,-195.659 z " >
   <title>warmińsko-mazurskie</title>
 </path>
  <path
   data-href="{% url "teryt:details" slug="podlaskie" %}"
   id="bialostockie"
   class="fil0 voivodeship"
   d="M 440.585,-203.307 C 438.5811,-201.4322 436.7199,-199.281 434.6319,-197.5688 C 424.289,-196.1217 413.904,-195.2341 403.5244,-193.9901 C 393.2974,-192.8569 383.0704,-191.7236 372.8434,-190.5904 C 370.9983,-182.7152 368.6092,-174.9464 367.6262,-166.9102 C 368.4557,-163.9722 370.2752,-161.3727 371.3887,-158.4987 C 372.7021,-155.6367 374.2967,-152.8254 375.266,-149.8611 C 373.8901,-143.2336 372.9514,-136.4939 371.3219,-129.9328 C 368.7112,-123.9004 365.6856,-118.0258 363.3598,-111.9348 C 363.4733,-110.553 362.4035,-108.8419 363.3928,-107.6684 C 364.4152,-106.7203 365.5593,-105.3717 367.13,-105.8785 C 370.1451,-105.7731 373.2439,-106.1312 376.2086,-105.684 C 379.0833,-103.6106 381.9548,-101.5325 384.8406,-99.4745 C 385.3235,-95.622 385.8349,-91.7729 386.3454,-87.9238 C 383.3442,-85.7964 380.6009,-83.1706 377.4393,-81.3561 C 374.5717,-80.5798 371.3712,-80.1285 368.7093,-79.1512 C 368.1081,-76.6294 368.1733,-73.7911 367.0143,-71.4949 C 364.2016,-69.818 361.55,-67.7443 358.6303,-66.3272 C 353.1568,-66.3272 347.6832,-66.3272 342.2096,-66.3272 C 343.8284,-65.5497 344.6865,-63.971 345.2137,-62.3345 C 346.7341,-58.9009 348.677,-55.583 349.8937,-52.0565 C 350.3117,-42.1483 350.7296,-32.2401 351.1476,-22.332 C 353.2451,-19.8171 355.9465,-17.6013 357.6547,-14.8327 C 357.6547,-7.0192 357.6547,0.7943 357.6547,8.6078 C 360.3627,10.7646 362.7989,13.1908 365.6583,15.1562 C 372.0193,15.3629 378.3804,15.5696 384.7414,15.7763 C 388.019,12.9438 391.3008,10.1161 394.5723,7.2766 C 396.4979,7.8102 398.4245,8.3405 400.3435,8.8971 C 401.0546,12.5854 400.8921,16.4672 402.1586,20.0161 C 403.9343,23.6366 406.2724,27.0291 407.6092,30.8144 C 408.3555,36.7635 408.6825,42.8102 409.6886,48.6932 C 412.5874,55.0732 415.4861,61.4531 418.3848,67.8331 C 421.6894,70.5065 424.9939,73.1798 428.2984,75.8533 C 430.313,75.9947 432.6072,75.5723 434.45,76.06 C 435.5241,77.2746 435.9949,79.1206 437.4289,79.9357 C 443.0265,81.2926 448.8378,81.8817 454.2556,83.857 C 464.3363,87.8698 474.4169,91.8826 484.4976,95.8954 C 484.5447,92.3856 484.355,88.8435 484.6051,85.3535 C 489.3174,76.6254 493.1937,67.4165 499.0054,59.3291 C 502.4829,54.0782 505.9687,48.8327 509.4346,43.5741 C 516.0489,42.8145 522.6701,42.1151 529.2866,41.3747 C 533.2815,38.4037 537.7517,35.9431 541.45,32.654 C 542.9628,29.572 544.4756,26.4899 545.9884,23.4079 C 544.8024,20.3886 542.8926,17.5902 542.2461,14.3969 C 541.7721,7.1933 541.0723,-0.0188 540.7464,-7.2176 C 541.1123,-9.0031 542.4959,-10.6834 542.2571,-12.4891 C 540.2003,-16.1444 537.5325,-19.5946 535.8764,-23.382 C 536.5632,-27.4086 536.3237,-31.7475 538.6188,-35.3409 C 540.058,-36.8563 538.7489,-38.1431 537.7732,-39.4576 C 532.7493,-46.7934 527.4854,-54.0153 522.6486,-61.4527 C 514.8628,-85.7481 506.727,-109.9822 499.1814,-134.3226 C 497.8832,-138.9122 496.3103,-143.4407 495.2794,-148.0587 C 496.2346,-152.0081 497.9363,-155.8935 497.396,-160.0476 C 497.3195,-162.0739 498.017,-164.5077 496.1775,-165.9881 C 492.3697,-171.0083 488.5618,-176.0286 484.7539,-181.0489 C 481.7424,-181.3796 478.5861,-181.1462 475.6671,-181.8675 C 472.9303,-184.4251 470.1935,-186.9827 467.4568,-189.5404 C 464.5294,-189.1783 461.6392,-188.8095 458.7172,-188.4572 C 455.2484,-193.2163 451.5785,-197.8525 447.0839,-201.6368 C 445.6506,-202.4827 443.8499,-202.3207 442.3296,-203.0341 C 441.7632,-203.1879 441.1758,-203.3376 440.585,-203.307 L 440.585,-203.307 z " >
   <title>podlaskie</title>
 </path>
  <path
   data-href="{% url "teryt:details" slug="wielkopolskie" %}"
   id="poznanskie"
   class="fil0 voivodeship"
   d="M -80.4701,-27.3258 C -86.7322,-23.0873 -92.9923,-18.846 -99.2555,-14.6092 C -103.2272,-14.8352 -107.1984,-15.0696 -111.17,-15.2955 C -113.7686,-13.1355 -116.0444,-10.4669 -118.8595,-8.6727 C -126.4956,-8.3137 -134.2061,-8.4839 -141.7967,-7.8026 C -146.6,-5.6141 -151.4156,-3.4523 -156.2154,-1.2561 C -160.7053,-3.039 -165.0684,-5.2286 -169.6423,-6.7408 C -175.3145,-7.1588 -180.9867,-7.5767 -186.659,-7.9947 C -192.0153,-5.0417 -197.7617,-2.6416 -202.3934,1.475 C -207.8012,5.6038 -213.1284,9.8757 -218.624,13.8666 C -229.3819,16.5937 -240.3046,18.8434 -251.1429,21.0351 C -251.5664,22.3089 -251.0511,23.7782 -251.4248,25.1025 C -251.648,27.6488 -251.4631,30.3113 -252.0524,32.776 C -254.5059,35.6965 -256.973,38.6056 -259.4194,41.532 C -259.5822,46.8746 -259.3792,52.2707 -259.7749,57.5807 C -261.5967,60.6702 -263.4185,63.7598 -265.2402,66.8494 C -264.3059,70.9752 -263.3716,75.1011 -262.4373,79.2269 C -259.4456,81.9291 -256.4648,84.6436 -253.4663,87.338 C -253.5155,91.3704 -252.9632,95.4828 -253.3919,99.4675 C -254.2882,100.6873 -255.9317,101.8454 -255.3432,103.5768 C -255.1373,105.0901 -255.857,106.9196 -254.9628,108.2484 C -253.9204,109.1184 -252.145,110.2345 -252.7965,111.8781 C -253.6538,117.4668 -254.2197,123.1304 -255.2687,128.6709 C -257.0856,131.3407 -259.8606,133.6157 -260.3372,136.9887 C -261.1874,138.9818 -263.5724,139.3885 -265.0005,140.8417 C -265.872,141.432 -267.6351,141.9553 -267.1585,143.3553 C -267.4889,144.8197 -267.0724,146.6076 -265.4717,147.0429 C -263.1453,148.3537 -264.1375,151.3628 -264.0592,153.4914 C -264.1084,155.2776 -264.1575,157.0638 -264.2067,158.8499 C -262.2198,160.415 -260.1565,161.8935 -258.237,163.5379 C -254.343,163.3811 -250.3559,163.8537 -246.5199,163.296 C -240.4168,159.9159 -233.8217,157.3272 -228.4837,152.7125 C -226.198,151.0891 -224.015,149.0996 -221.6584,147.7126 C -217.5824,148.1193 -213.3859,147.8479 -209.3868,148.7058 C -203.4228,151.3056 -197.7701,154.8495 -191.3763,156.2522 C -189.6654,156.6444 -187.8805,157.4393 -186.1442,157.3207 C -181.4002,155.2473 -176.7232,152.9788 -171.9498,151.0199 C -165.433,150.8496 -158.9054,150.4705 -152.3954,150.4329 C -147.1536,152.4591 -141.9103,154.4817 -136.6693,156.51 C -134.9538,161.5011 -133.2251,166.4859 -131.4934,171.4837 C -122.109,172.355 -112.7242,173.2231 -103.34,174.0965 C -95.8605,180.466 -88.3853,186.8316 -80.9083,193.2043 C -65.0357,193.9016 -49.1423,194.438 -33.2833,195.2549 C -29.3236,196.8705 -25.3748,198.5131 -21.4101,200.1166 C -20.7347,207.1853 -20.0708,214.2553 -19.401,221.3246 C -16.437,223.2796 -13.7466,226.0197 -10.0407,226.4726 C -8.2324,227.0949 -5.638,227.0349 -4.978,229.197 C 1.6741,241.6513 8.3262,254.1057 14.9783,266.5601 C 20.0351,263.212 24.8377,259.3677 30.0998,256.3616 C 32.0487,255.8282 33.9976,255.2947 35.9466,254.7613 C 35.1779,248.9482 33.9866,243.1045 33.5074,237.3071 C 35.2272,233.4706 36.947,229.6342 38.6668,225.7977 C 37.7397,222.1351 36.8206,218.4705 35.8887,214.8092 C 39.2867,213.1465 42.3414,210.5208 46.3086,210.438 C 50.3126,209.7729 54.3165,209.1078 58.3204,208.4427 C 63.9459,199.8513 69.3262,191.0498 75.1146,182.6121 C 85.0829,172.2412 95.0511,161.8703 105.0193,151.4995 C 107.1663,146.172 109.3133,140.8445 111.4603,135.517 C 107.7506,120.1023 104.0409,104.6875 100.3313,89.2728 C 98.5398,87.2884 96.7484,85.304 94.9569,83.3197 C 91.6836,83.923 88.2388,83.8381 85.0867,84.9189 C 80.9816,87.1465 77.0008,89.8359 72.7898,91.8029 C 71.2059,91.5111 68.9935,92.499 67.8442,91.0783 C 60.3869,78.2163 52.584,65.5 45.3475,52.5453 C 45.3475,46.7438 45.3475,40.9422 45.3475,35.1407 C 43.3411,32.9441 41.3347,30.7475 39.3283,28.5509 C 31.5719,28.648 23.7566,29.2328 16.0367,29.0305 C -2.1783,17.4329 -20.3932,5.8353 -38.6081,-5.7622 C -43.5858,-6.2173 -48.5642,-6.6649 -53.5405,-7.1348 C -56.0314,-12.8987 -59.0751,-18.4605 -61.2314,-24.3387 C -61.4927,-26.3238 -61.7541,-28.3089 -62.0154,-30.2941 C -68.167,-29.3046 -74.3186,-28.3152 -80.4701,-27.3258 L -80.4701,-27.3258 z " >
   <title>wielkopolskie</title>
 </path>
  <path
   data-href="{% url "teryt:details" slug="dolnoslaskie" %}"
   id="wroclawskie"
   class="fil0 voivodeship"
   d="M -232.498,157.75 C -237.3347,160.2458 -242.0997,162.9699 -247.0253,165.2409 C -250.6082,165.2409 -254.1911,165.2409 -257.774,165.2409 C -256.691,167.2187 -255.1127,169.2767 -255.7977,171.7096 C -256.073,173.5106 -255.8142,175.6076 -256.4015,177.2298 C -257.8459,178.2402 -259.2687,179.2116 -260.7092,180.2229 C -260.5466,182.2679 -260.384,184.3129 -260.2214,186.3579 C -253.9576,190.6502 -247.6879,194.934 -241.4277,199.2316 C -240.8703,203.2558 -240.9227,207.4015 -240.0304,211.3445 C -239.1946,212.7523 -237.8196,214.5641 -238.9225,216.2145 C -239.6086,218.3078 -240.7348,220.5149 -239.813,222.7298 C -239.2509,226.5241 -238.16,230.3225 -237.9689,234.1219 C -240.5559,243.1768 -242.908,252.3466 -245.6528,261.326 C -249.5499,265.9644 -253.447,270.6029 -257.3441,275.2414 C -256.9653,276.4567 -255.8504,277.6226 -254.475,277.1596 C -252.06,277.483 -249.0412,276.8974 -247.3561,279.1027 C -246.9194,279.5766 -246.3558,280.1582 -246.3225,279.1357 C -245.6666,277.6823 -245.6897,276.0747 -246.2068,274.6047 C -246.5079,273.2118 -247.7056,271.3094 -246.2068,270.1813 C -245.2582,269.4797 -243.7129,268.3294 -244.6441,267.0063 C -244.3997,265.6789 -246.0165,263.7612 -244.4622,262.8556 C -240.4354,262.8302 -236.1987,262.3978 -232.2583,263.5584 C -230.5937,263.0262 -228.9284,262.4962 -227.2643,261.9626 C -226.4874,263.2904 -226.8014,265.1813 -225.8008,266.2704 C -223.8274,266.3433 -221.7921,265.948 -219.8725,266.5432 C -219.2942,268.0769 -216.9255,269.1466 -217.7145,271.0494 C -218.699,272.458 -219.3951,274.0868 -219.0787,275.8037 C -219.379,277.4965 -218.6351,279.0447 -217.5222,280.2509 C -215.4657,283.4249 -213.1414,286.4573 -211.2818,289.7273 C -211.047,291.3984 -211.1063,293.4155 -210.6947,294.8784 C -209.297,294.9446 -207.798,294.6275 -206.9988,293.3902 C -206.1177,292.5321 -204.8739,290.7955 -203.4931,291.8109 C -201.8724,293.133 -200.3592,294.9358 -198.2262,295.4241 C -193.9407,295.8277 -189.5838,296.2321 -185.3609,296.9951 C -183.0816,298.6736 -180.8023,300.352 -178.523,302.0305 C -176.4386,301.1713 -174.3522,300.3195 -172.2723,299.4508 C -170.596,303.189 -168.8856,306.9095 -167.1873,310.6377 C -165.3567,311.0317 -163.4476,311.634 -161.6641,311.9027 C -161.0526,311.0612 -160.3903,309.0425 -159.01,309.7447 C -157.7582,311.3353 -156.7358,313.1431 -155.4133,314.7139 C -154.3983,316.0708 -153.2951,317.457 -153.6345,319.2685 C -153.9104,321.6109 -153.3244,322.08 -151.6812,320.2513 C -149.5073,318.5217 -147.333,316.7927 -145.1607,315.0612 C -143.4466,315.9911 -142.0228,317.4976 -140.2411,318.1783 C -138.5429,317.9607 -136.2684,318.668 -135.2424,316.8498 C -133.9519,315.553 -132.6597,314.2579 -131.3776,312.9528 C -127.3721,317.3155 -123.1177,321.5232 -119.3308,326.0331 C -118.8382,328.1169 -118.3401,330.1994 -117.8508,332.2839 C -121.7094,335.4132 -125.2285,339.0692 -129.3153,341.9016 C -132.1635,343.0779 -135.0117,344.2541 -137.8599,345.4304 C -137.6691,347.0403 -138.3351,348.9827 -137.5208,350.3636 C -134.465,352.4913 -131.6418,355.0902 -128.4258,356.8819 C -126.9842,356.8419 -124.9735,357.0639 -124.6473,358.8001 C -122.0282,363.9133 -117.8919,368.0046 -114.719,372.7383 C -112.9739,376.9172 -111.6778,381.3169 -109.6349,385.3291 C -106.0413,389.1633 -102.5035,393.2223 -98.8752,396.9167 C -97.2117,396.5923 -95.2152,397.0463 -93.7628,396.1601 C -90.2593,391.7761 -86.409,387.5916 -84.0833,382.4473 C -83.5787,381.3027 -82.3062,380.8265 -81.1403,381.1082 C -77.2733,380.8473 -73.3125,380.9366 -69.6553,379.5286 C -68.324,379.9004 -68.489,381.8506 -67.8611,382.6044 C -66.5373,381.6317 -67.9954,379.9816 -68.1091,378.7431 C -69.2039,375.9399 -69.3003,372.7635 -70.077,369.9622 C -72.3405,368.572 -75.3408,367.7274 -76.1566,364.8483 C -77.7923,361.7435 -79.4274,358.6382 -81.0489,355.5259 C -79.1007,353.6647 -77.1315,351.8288 -75.1536,350.0027 C -72.6133,350.8275 -69.8881,352.0368 -67.4559,352.6072 C -66.2585,350.5829 -63.9027,349.3168 -63.049,347.0675 C -62.9143,346.0227 -63.2575,344.8517 -62.3048,344.0662 C -57.9956,340.1028 -53.7545,335.9364 -49.4759,331.8691 C -47.9113,330.4765 -46.468,328.9796 -46.0566,326.848 C -44.566,322.7822 -43.0757,318.7164 -41.5929,314.6478 C -38.1123,314.3954 -34.6317,314.1429 -31.1501,313.9037 C -29.6057,315.6476 -28.0711,317.3919 -26.5199,319.1292 C -22.6338,318.7295 -18.7478,318.3299 -14.8617,317.9303 C -12.393,315.1303 -9.108,312.9883 -7.3107,309.683 C -0.5618,295.5815 6.1871,281.4799 12.9361,267.3783 C 6.101,254.5873 -0.7341,241.7964 -7.5691,229.0055 C -10.9309,227.9836 -14.6668,227.6769 -17.3578,225.1616 C -18.763,224.014 -20.6611,223.1569 -21.7739,221.8369 C -22.4257,214.9496 -23.0762,208.0622 -23.7252,201.1746 C -27.498,199.7999 -31.11,197.7813 -35.0027,196.8447 C -50.6849,196.1877 -66.3672,195.5323 -82.0493,194.8742 C -89.5395,188.4897 -97.0369,182.1136 -104.5307,175.7333 C -114.1411,174.8404 -123.7519,173.9511 -133.362,173.0544 C -135.1249,167.9458 -136.8901,162.8399 -138.6702,157.7252 C -143.7374,155.9322 -148.6722,153.5425 -153.8091,152.0882 C -160.03,152.4146 -166.3222,152.2768 -172.4971,152.9306 C -177.2539,155.071 -182.0149,157.202 -186.7665,159.3539 C -191.8933,157.8886 -197.2479,156.9974 -201.9135,154.3257 C -205.1738,152.9366 -208.2615,150.9341 -211.6695,150.0129 C -214.9578,149.8193 -218.2461,149.6257 -221.5344,149.4321 C -225.1889,152.2047 -228.8435,154.9774 -232.498,157.75 L -232.498,157.75 z " >
   <title>dolnoslaskie</title>
 </path>
  <path
   data-href="{% url "teryt:details" slug="kujawsko-pomorskie" %}"
   id="bydgoskie"
   class="fil0 voivodeship"
   d="M -33.9696,-141.097 C -33.3619,-137.2264 -33.365,-133.2173 -32.4081,-129.4371 C -26.036,-119.1518 -19.6614,-108.868 -13.2907,-98.5818 C -13.6071,-94.7693 -13.5911,-90.8936 -14.1341,-87.122 C -20.7915,-77.0046 -27.1484,-66.6563 -33.9999,-56.6901 C -42.4344,-48.2857 -50.8689,-39.8812 -59.3034,-31.4768 C -59.0024,-28.0883 -59.6574,-24.4512 -57.6832,-21.4424 C -55.8062,-17.3706 -53.9292,-13.2988 -52.0522,-9.227 C -47.2575,-8.7158 -42.3903,-8.5169 -37.6407,-7.7966 C -19.4423,3.7872 -1.2439,15.371 16.9544,26.9547 C 24.7403,26.7338 32.5263,26.5163 40.3122,26.2933 C 42.6348,29.1374 45.6043,31.5775 47.5386,34.6442 C 47.5386,40.4843 47.5386,46.3244 47.5386,52.1646 C 54.9055,64.6195 62.1853,77.2267 69.6065,89.5866 C 71.4468,89.7521 73.4102,89.6406 74.8286,88.3322 C 78.4327,86.405 81.8827,83.9878 85.6115,82.3419 C 89.0245,81.886 92.4398,81.4473 95.8499,80.9711 C 97.9891,83.4863 100.4276,85.7818 102.3818,88.4125 C 102.7842,90.0992 103.1865,91.7859 103.5889,93.4727 C 107.5994,92.1455 111.6079,90.8122 115.6192,89.4874 C 117.1964,91.0115 118.7365,92.563 120.299,94.101 C 122.2365,93.7786 124.174,93.4561 126.1115,93.1337 C 134.7849,76.2169 143.4582,59.3001 152.1316,42.3833 C 152.873,38.7507 153.6144,35.1183 154.3558,31.4857 C 152.4308,28.4328 150.5158,25.3735 148.5846,22.3245 C 149.4013,20.2831 149.2509,17.3673 151.5777,16.3135 C 157.3075,11.9893 163.0374,7.665 168.7673,3.3407 C 169.0697,-1.9155 169.5961,-7.234 169.7595,-12.4516 C 168.508,-13.8089 167.0166,-15.4629 167.651,-17.4621 C 168.0179,-29.3435 168.3819,-41.2251 168.7507,-53.1065 C 173.866,-57.4931 179.0025,-61.8554 184.1297,-66.2282 C 182.3685,-69.1965 180.6074,-72.1648 178.8463,-75.1331 C 175.6359,-75.1052 172.3387,-75.764 169.1801,-75.2871 C 164.9289,-72.9845 160.813,-70.2845 156.4559,-68.2705 C 148.9677,-68.7395 141.4792,-69.2044 133.9911,-69.676 C 130.4545,-74.1991 126.9845,-78.7968 123.0358,-82.9714 C 115.7748,-82.5947 108.5269,-81.9602 101.2573,-81.7559 C 98.5965,-83.7349 95.3389,-85.0104 93.0814,-87.4472 C 90.2284,-91.5005 87.3754,-95.5538 84.5224,-99.607 C 81.0717,-99.5108 77.4256,-100.1941 74.2382,-98.4859 C 69.3053,-96.6692 64.4137,-94.4272 59.4035,-93.0173 C 52.6073,-95.1171 45.7105,-96.9936 38.981,-99.2432 C 35.5375,-102.4388 32.0952,-105.6358 28.6623,-108.8427 C 28.444,-113.7513 28.2201,-118.6597 28.0008,-123.5684 C 25.2337,-127.6033 22.4666,-131.6382 19.6995,-135.6731 C 17.199,-136.3743 14.6751,-137.5783 12.1892,-137.965 C 8.6143,-136.4073 5.0442,-134.8383 1.468,-133.2835 C -0.388,-135.0611 -2.287,-136.9787 -4.1461,-138.6413 C -5.4145,-137.6782 -6.7926,-139.4171 -8.1314,-139.4434 C -13.1135,-141.0791 -18.0002,-143.0814 -23.0555,-144.4291 C -25.5774,-144.4291 -28.0992,-144.4291 -30.6209,-144.4291 C -31.7372,-143.3184 -32.8534,-142.2077 -33.9696,-141.097 L -33.9696,-141.097 z " >
   <title>kujawsko</title>
 </path>
  <path
   data-href="{% url "teryt:details" slug="mazowieckie" %}"
   id="warszawskie"
   class="fil0 voivodeship"
   d="M 333.413,-66.7652 C 328.6292,-66.257 323.832,-65.6489 319.0249,-65.1542 C 316.551,-64.7073 314.5074,-62.8912 312.2204,-61.8562 C 300.7586,-55.6134 289.3738,-49.1336 277.8175,-43.1264 C 270.1473,-43.4248 262.4394,-43.1998 254.793,-43.8359 C 251.7053,-44.3518 248.6177,-44.8677 245.53,-45.3836 C 238.9594,-40.9631 232.39,-36.5406 225.8186,-32.1214 C 222.3313,-32.6274 218.8439,-33.1357 215.351,-33.6014 C 212.7718,-37.2519 210.1833,-40.8958 207.5954,-44.5402 C 204.3681,-44.8547 201.1405,-45.1673 197.9133,-45.4828 C 193.7827,-51.6459 189.6626,-57.816 185.544,-63.9871 C 180.7512,-59.9054 175.9584,-55.8236 171.1656,-51.7419 C 170.8474,-39.6227 170.3191,-27.4434 170.1321,-15.3617 C 171.3026,-14.08 172.9087,-12.512 172.1977,-10.5832 C 171.8483,-5.4457 171.4979,-0.3082 171.149,4.8294 C 164.8377,9.6397 158.3241,14.3629 152.1486,19.2409 C 151.8716,20.6259 150.5556,22.3388 151.937,23.5361 C 153.5221,26.3278 155.7375,28.9052 156.8533,31.8665 C 155.8573,35.9818 155.4713,40.2755 154.0654,44.2602 C 147.9639,56.1693 141.8625,68.0785 135.761,79.9876 C 144.586,85.847 153.4109,91.7064 162.2359,97.5658 C 173.0237,98.0522 183.8554,98.2709 194.6143,98.9549 C 198.9247,101.3142 203.2357,103.6726 207.5458,106.0325 C 211.9417,117.4724 216.3239,128.9179 220.7088,140.3622 C 226.7607,141.618 232.8156,142.8605 238.8658,144.1242 C 243.2015,150.8613 247.6496,157.5423 251.8718,164.3399 C 253.0329,170.2703 254.7305,176.1312 255.5917,182.1161 C 255.2665,187.9637 254.7031,193.9499 254.5259,199.7114 C 255.4138,199.9497 256.4512,201.3932 257.3701,200.6788 C 261.8979,196.1787 266.555,191.7096 271.269,187.4166 C 277.4647,185.1593 283.6603,182.9021 289.856,180.6449 C 292.0388,177.2128 294.7972,174.0407 296.5698,170.4088 C 297.2823,167.2535 296.8896,163.5559 299.4471,161.1525 C 300.9996,159.1089 302.5431,157.0584 304.0939,155.0135 C 307.1646,156.9327 310.8836,158.0655 313.0477,161.1364 C 321.9073,170.4584 330.5586,180.0067 339.5363,189.1762 C 349.4814,195.8437 359.4265,202.5111 369.3716,209.1786 C 377.1961,205.0747 385.0206,200.9709 392.8451,196.8672 C 385.7667,188.4313 378.1342,180.3823 371.4527,171.5993 C 367.4321,166.1983 363.4118,160.7971 359.3835,155.4021 C 360.7298,146.7723 361.9038,138.1044 363.3523,129.4977 C 369.0959,118.9051 374.8447,108.3188 380.5667,97.7147 C 387.2233,95.8534 393.801,93.5367 400.4849,91.9104 C 406.358,93.3643 412.0214,95.8975 418.1523,95.9727 C 420.2302,95.998 422.7045,96.8323 424.261,95.0037 C 427.6631,92.4678 431.0652,89.9319 434.4673,87.3959 C 434.3948,84.83 435.13,82.1183 434.5252,79.632 C 433.9633,78.248 432.3755,78.0068 431.0939,78.3091 C 429.3334,78.465 427.2266,78.4622 426.1013,76.8688 C 423.0625,74.3186 419.8021,71.9794 416.9222,69.2885 C 413.875,62.4124 410.5407,55.6243 407.6891,48.6858 C 406.9264,42.6712 406.6293,36.5421 405.5635,30.6065 C 403.7275,26.8481 401.306,23.3262 399.8963,19.4003 C 399.4718,16.607 399.2432,13.6272 398.699,10.9479 C 397.3124,10.682 395.5344,9.1923 394.4273,10.8385 C 391.5648,13.316 388.6938,15.7839 385.8419,18.2735 C 378.8857,18.0385 371.929,17.8156 364.9729,17.579 C 361.9408,15.0383 358.9142,12.4911 355.8778,9.9557 C 355.8778,1.9438 355.8778,-6.0682 355.8778,-14.0801 C 353.7803,-16.5811 351.1398,-18.7802 349.379,-21.5132 C 348.9601,-31.5674 348.5411,-41.6215 348.1222,-51.6757 C 346.2536,-55.6059 344.385,-59.536 342.5164,-63.4662 C 340.3122,-64.9126 338.084,-66.5686 335.3561,-66.6412 C 334.7158,-66.749 334.0616,-66.7855 333.413,-66.7652 L 333.413,-66.7652 z " >
   <title>mazowieckie</title>
 </path>
  <path
   data-href="{% url "teryt:details" slug="lubelskie" %}"
   id="lubelskie"
   class="fil0 voivodeship"
   d="M 436.782,88.2227 C 435.1672,90.4778 432.3175,91.7589 430.1903,93.5997 C 427.7945,95.2291 425.6309,97.4072 423.0403,98.6242 C 418.3847,98.2266 413.5798,98.4704 409.1592,96.8008 C 406.0879,96.0326 403.057,94.6933 399.9168,94.4253 C 394.0179,96.1887 388.1189,97.9521 382.22,99.7156 C 376.6555,110.0012 371.091,120.2869 365.5264,130.5726 C 364.289,138.7389 363.0515,146.9051 361.814,155.0714 C 368.8267,164.3618 375.413,173.9568 383.3069,182.5809 C 387.6763,187.6332 392.0383,192.6918 396.4083,197.7436 C 387.8454,202.2656 379.2587,206.7426 370.6858,211.2456 C 371.4112,215.38 372.0219,219.6102 374.0736,223.3132 C 375.3902,226.3757 376.7245,229.4305 378.0363,232.495 C 374.1113,236.388 369.7497,239.8772 366.1174,244.0031 C 364.1455,249.1105 362.1736,254.2179 360.2017,259.3254 C 363.2702,273.6305 366.1942,287.9446 370.0817,302.0556 C 371.0503,305.422 371.6524,309.0136 372.8443,312.2428 C 377.048,315.8299 380.957,319.8499 385.3402,323.1484 C 395.147,326.4212 404.9979,329.5891 414.6728,333.1937 C 416.6958,334.9878 418.7182,336.7827 420.7417,338.5763 C 420.0375,343.4137 419.4899,348.3304 417.7486,352.9135 C 417.4269,355.663 418.6206,358.2821 418.7602,361.0294 C 419.2659,362.4973 418.5927,364.8214 420.5013,365.2681 C 425.1935,367.5461 429.6487,370.432 434.5544,372.1985 C 440.6017,373.4872 446.5919,375.3073 452.6731,376.2396 C 457.1877,376.0407 461.7023,375.8417 466.2169,375.6428 C 469.7222,368.2695 473.2478,360.9183 476.9739,353.6576 C 481.9566,353.7134 486.9626,353.5498 491.9311,353.7403 C 496.0415,355.6002 500.415,357.0314 504.3583,359.156 C 509.0436,366.771 513.7289,374.386 518.4143,382.0011 C 525.5586,374.3818 530.9117,368.367 537.0521,361.6536 C 545.4335,352.4901 547.3704,351.6375 560.6139,351.7128 C 570.0517,351.7666 580.105,350.3923 584.2565,350.3923 C 586.4266,349.1893 586.6,344.8794 586.5779,340.6166 C 586.5584,336.8587 584.9675,331.9775 587.5307,329.6827 C 588.7175,328.6203 588.6335,327.5797 588.0251,325.3974 C 587.8558,323.9599 576.9662,318.3481 575.4873,317.5956 C 573.9704,316.8305 569.3475,316.7996 567.8335,316.0289 C 567.8335,313.2204 567.8335,310.412 567.8335,307.6036 C 564.2421,304.9222 560.6524,302.2385 557.06,299.5586 C 557.1438,297.2016 557.2373,294.845 557.3494,292.4892 C 561.4602,290.3684 565.3511,287.4629 570.0163,286.809 C 568.9634,285.1748 567.359,283.9197 566.2956,282.2614 C 564.6091,280.1879 561.6292,280.1107 559.346,278.9909 C 557.6385,278.6959 556.5088,277.8079 556.2121,276.0588 C 553.8844,270.3589 552.0822,264.4035 549.2796,258.9202 C 545.8936,253.2476 542.7502,247.3785 538.3042,242.436 C 536.8741,240.4477 534.9095,238.669 533.9222,236.4735 C 533.4857,235.0135 534.108,232.719 532.9474,231.8295 C 530.5487,230.9777 528.1531,230.1203 525.7564,229.2621 C 526.3982,224.8912 526.5121,220.3412 527.5176,216.066 C 528.9397,214.5667 530.3618,213.0674 531.784,211.5681 C 529.3934,208.1794 527.756,204.0925 524.7064,201.2493 C 523.1516,199.7051 520.9748,198.5525 519.9386,196.6414 C 518.7555,190.7562 517.1352,184.9263 516.195,178.9913 C 516.2905,173.8567 516.3806,168.722 516.4795,163.5875 C 518.3583,162.6848 520.542,161.9013 522.2094,160.8838 C 521.6563,158.1548 521.163,155.2902 519.4643,153.0208 C 518.683,151.8442 517.1703,150.3921 518.2212,148.9 C 519.7988,145.1019 521.9622,141.4443 523.1692,137.5345 C 523.2183,134.8761 522.6536,132.0984 523.1513,129.5117 C 523.7093,128.2587 524.7198,126.9216 525.0041,125.7192 C 522.8134,123.5248 521.4388,120.7394 520.1093,117.9883 C 517.9357,114.867 514.9088,112.5218 512.4614,109.601 C 510.9991,108.2605 509.7717,106.3591 508.17,105.3513 C 504.3995,105.4237 500.629,105.4966 496.859,105.586 C 495.3292,103.805 493.8081,102.0164 492.2867,100.2282 C 489.7015,100.2282 487.1162,100.2282 484.5311,100.2282 C 485.0756,99.3731 484.9319,98.1527 483.8283,97.9792 C 472.8767,93.8277 462.0917,89.1239 451.0808,85.1209 C 446.411,84.1401 441.7412,83.1594 437.0714,82.1787 C 436.975,84.1933 436.8785,86.208 436.782,88.2227 L 436.782,88.2227 z " >
   <title>lubelskie</title>
 </path>
  <path
   data-href="{% url "teryt:details" slug="podkarpackie" %}"
   id="rzeszowskie"
   class="fil0 voivodeship"
   d="M 326.699,358.279 C 319.5899,361.8467 312.3765,365.2317 305.2182,368.7218 C 307.2118,373.7946 309.3644,378.8173 311.2375,383.9188 C 311.1177,395.921 311.4895,407.937 311.0317,419.9304 C 310.4499,427.4175 309.8675,434.9046 309.2862,442.3917 C 305.2422,444.0987 301.2008,445.8116 297.1566,447.518 C 295.519,451.8729 293.1436,456.0589 292.9345,460.8191 C 292.6464,463.6265 291.8709,466.5365 291.8812,469.2811 C 294.3494,473.44 297.3455,477.3345 299.4302,481.6916 C 301.0682,486.8991 302.3135,492.3168 304.2756,497.3506 C 305.5173,497.9441 306.9899,497.1376 308.327,497.3755 C 310.2843,497.4234 312.4945,496.6352 314.3215,497.516 C 315.166,497.9873 315.6782,499.4305 316.7027,499.335 C 318.6035,497.8637 320.4199,496.0451 321.0353,493.6548 C 322.3185,491.568 325.1252,492.7785 327.0876,492.2657 C 328.5614,491.9967 329.7546,492.9278 330.6513,493.9524 C 332.1593,495.1413 333.3286,496.9318 335.1326,497.5987 C 339.7518,497.5987 344.371,497.5987 348.9902,497.5987 C 351.775,495.7967 354.538,493.9612 357.3328,492.1747 C 359.6825,495.0731 362.3824,497.6308 365.584,499.5413 C 367.6485,500.9911 369.7129,502.441 371.7774,503.8908 C 373.8941,503.2182 376.0339,501.9423 378.1357,501.6253 C 381.4549,503.5419 385.0217,505.1114 388.1733,507.2725 C 391.2463,513.1154 394.3194,518.9583 397.3924,524.8012 C 403.7369,526.4646 410.077,528.1242 416.5085,529.3652 C 417.4016,530.4974 416.9546,532.3196 418.0795,533.2182 C 421.4143,533.1269 424.7493,533.0385 428.0841,532.9454 C 429.7384,534.8556 430.5414,537.8234 433.3675,538.3611 C 435.9439,539.3949 438.4474,540.8857 441.1615,541.4555 C 444.6654,540.9279 448.1708,540.4106 451.6733,539.8742 C 453.4425,541.6317 454.7133,543.977 456.7087,545.3973 C 458.1569,545.657 459.9041,546.1773 460.9585,544.8351 C 462.0092,544.1337 463.2985,542.1847 464.7206,543.2476 C 467.5954,545.8703 470.653,548.518 473.766,550.8461 C 474.9962,551.3793 474.8875,549.5922 474.8574,548.87 C 475.2193,547.7693 474.5057,546.8444 473.6089,546.282 C 471.9172,545.1314 472.3995,542.9553 472.0462,541.2301 C 471.9503,539.9577 471.7083,538.5778 470.3803,537.97 C 466.2234,534.3881 462.0792,530.8212 457.9324,527.2486 C 458.5425,521.9339 450.3735,523.3146 450.0607,522.5027 C 447.9709,521.7971 439.994,520.8931 436.7073,517.7616 C 431.9614,513.2397 437.1857,510.7733 438.1012,507.5259 C 438.4564,505.7918 434.37,502.7649 432.8033,501.8792 C 449.7971,480.8503 462.5876,459.7719 477.2794,437.0914 C 490.3133,419.3745 503.4037,401.6739 516.4301,383.9767 C 516.0847,382.3621 514.6119,381.2394 513.9889,379.7202 C 510.1752,373.513 506.3614,367.3057 502.5477,361.0985 C 498.5522,359.5717 494.7091,357.5263 490.625,356.3112 C 486.4522,356.3112 482.2795,356.3112 478.1069,356.3112 C 474.4097,363.5579 470.9566,370.9049 467.4326,378.2468 C 461.9168,378.3621 456.3839,378.9745 450.8788,378.7796 C 444.528,377.1868 438.0567,375.9808 431.7847,374.1317 C 426.9462,371.6283 422.1077,369.125 417.2692,366.6217 C 416.6536,362.3021 415.7649,357.9927 415.3262,353.6654 C 416.8208,349.3279 417.8358,344.8305 418.2531,340.2791 C 418.0662,338.841 416.2819,338.5853 415.566,337.4762 C 414.1073,335.9028 412.2345,334.7931 410.1113,334.3378 C 401.2833,331.1852 392.2815,328.4035 383.4439,325.264 C 379.398,321.6425 375.3521,318.021 371.3061,314.3995 C 356.4371,329.026 341.5681,343.6525 326.699,358.279 L 326.699,358.279 z " >
   <title>podkarpackie</title>
 </path>
  <path
   data-href="{% url "teryt:details" slug="małopolskie" %}"
   id="krakowskie"
   class="fil0 voivodeship"
   d="M 154.951,346.448 C 156.1251,352.8013 157.2975,359.1549 158.4815,365.5063 C 154.8287,369.7105 151.2516,373.9224 147.6005,378.1236 C 144.9783,378.6876 142.1298,378.62 139.6619,379.5855 C 137.344,381.556 134.6183,383.2732 132.5555,385.4022 C 129.5788,399.1887 126.9378,413.074 123.7404,426.7948 C 119.3549,439.587 114.9693,452.3793 110.5838,465.1715 C 112.3869,468.8632 114.6869,472.3975 116.1566,476.2096 C 115.7594,479.0243 115.3363,481.8353 114.9494,484.6514 C 113.341,485.5885 111.7147,486.4942 110.0959,487.413 C 111.0192,492.0377 111.9425,496.6624 112.8658,501.2871 C 114.9902,500.5072 116.9735,499.0793 119.2054,498.7988 C 122.5744,499.176 126.0047,499.7697 129.336,500.0138 C 130.5139,499.1983 132.1348,498.4388 131.9822,496.7626 C 133.1227,491.6769 134.2868,486.5965 135.4214,481.5095 C 138.8981,480.8022 142.4724,480.5578 145.889,479.6326 C 149.0835,476.3669 152.2763,473.0995 155.4719,469.8348 C 157.6541,472.8827 160.6093,475.4525 162.2921,478.8044 C 163.7905,483.1233 164.7543,487.7127 166.6416,491.8392 C 170.368,495.4681 174.0945,499.0969 177.8209,502.7258 C 179.0598,501.613 180.886,500.6243 182.5007,501.5682 C 183.967,502.0146 186.0775,501.6872 187.0813,502.9987 C 188.2142,508.7857 190.1255,514.6408 189.9587,520.61 C 189.3331,522.2443 187.4921,522.9201 186.5356,524.3224 C 186.0641,524.9631 184.4857,525.4381 184.8489,526.4225 C 185.9043,527.6699 186.5125,529.4666 187.5609,530.5897 C 189.9159,530.2143 192.5592,530.7365 194.6788,529.6238 C 196.5822,528.2889 198.2679,526.5026 200.3766,525.5709 C 202.7462,525.8535 205.3299,525.3385 207.5617,526.1662 C 209.4873,528.2709 211.3137,530.5744 213.2999,532.5576 C 213.9372,532.4875 215.505,533.2181 215.615,532.1772 C 215.5047,529.0783 215.6546,525.8721 216.0863,522.7845 C 220.4567,518.4488 224.8113,514.0967 229.1749,509.7538 C 230.8359,509.6312 232.7596,509.9912 234.2681,509.5884 C 235.7077,507.5562 236.692,505.0033 238.5262,503.3542 C 242.6888,502.5761 246.7876,501.0592 251.0165,500.7398 C 254.723,501.1798 258.3879,502.6683 262.1285,502.287 C 265.8973,501.7196 269.6658,501.1508 273.4347,500.5843 C 275.8688,502.5328 278.7613,504.0097 280.9092,506.2398 C 281.3713,507.1593 280.9217,508.8421 282.0585,509.266 C 284.4497,509.4051 286.9157,509.6618 289.2518,510.2912 C 289.8935,511.6841 291.467,512.619 292.9891,512.0276 C 294.5496,512.219 296.2944,511.8157 297.0259,510.2912 C 298.3833,508.9729 299.3948,507.1245 301.0919,506.2563 C 302.729,506.1957 304.3661,506.135 306.0033,506.0744 C 304.5486,502.5448 302.52,499.2521 301.1498,495.7061 C 299.5991,490.8416 298.4984,485.787 296.6011,481.062 C 294.1869,477.2353 291.7745,473.4075 289.351,469.5867 C 290.2997,464.6003 290.3868,459.4166 291.8724,454.555 C 293.0271,451.6941 294.1837,448.834 295.3372,445.9727 C 299.2518,444.3185 303.1643,442.6595 307.0781,441.0035 C 307.8684,429.5539 309.2731,418.1214 308.922,406.6242 C 308.8561,399.0687 309.0534,391.4624 308.8234,383.9386 C 306.9436,379.2525 305.0637,374.5663 303.1838,369.8802 C 291.7277,375.3213 280.0824,380.3972 268.7519,386.0804 C 261.8115,390.6117 255.0605,395.5696 247.9934,399.8194 C 245.7058,399.8194 243.4183,399.8194 241.1307,399.8194 C 237.6129,393.5637 233.7505,387.4689 230.3986,381.1497 C 230.2139,376.9219 230.0293,372.6941 229.8446,368.4663 C 226.9507,364.8448 224.0568,361.2233 221.163,357.6018 C 199.5801,351.3069 177.9973,345.0121 156.4145,338.7172 C 155.9266,341.2941 155.4388,343.8711 154.951,346.448 L 154.951,346.448 z " >
   <title>małopolskie</title>
 </path>
  <path
   data-href="{% url "teryt:details" slug="śląskie" %}"
   id="katowickie"
   class="fil0 voivodeship"
   d="M 30.5143,258.672 C 25.3932,261.8971 20.1547,264.9409 15.1272,268.3127 C 8.0045,283.0687 1.0566,297.9314 -6.1718,312.6222 C -8.844,315.1032 -11.2144,318.058 -14.1093,320.2041 C -18.4717,320.6495 -22.8342,321.0943 -27.1979,321.5271 C -28.7483,319.773 -30.3015,318.0215 -31.8529,316.2685 C -34.5346,316.4614 -37.2163,316.6543 -39.8979,316.8472 C -41.6977,321.5834 -43.2524,326.4474 -45.2309,331.0934 C -50.3871,336.0602 -55.6785,340.9802 -60.7504,345.9762 C -60.5077,347.6587 -61.0231,349.4738 -62.472,350.4489 C -63.1333,351.5418 -65.0012,352.6406 -64.9837,353.7318 C -63.2117,355.225 -60.6922,355.2665 -58.6857,356.3932 C -56.1062,357.6664 -53.2975,356.9556 -50.5805,356.8737 C -48.5525,356.9325 -48.8441,359.5827 -48.1516,360.9291 C -47.4702,363.1354 -46.7888,365.3417 -46.1074,367.548 C -43.3743,368.5369 -40.4412,369.1614 -37.8226,370.384 C -36.5768,371.7924 -35.3311,373.2007 -34.0853,374.6091 C -32.6381,373.9317 -31.1932,373.2494 -29.7445,372.5751 C -28.8098,373.7998 -29.3097,375.7479 -28.2066,376.7588 C -21.6582,377.0096 -15.1098,377.2604 -8.5613,377.5112 C -6.7741,374.7615 -4.9976,372.0048 -3.2035,369.2595 C -1.7443,371.3405 0.2056,373.1047 1.4019,375.3119 C 1.5999,378.4428 1.8014,381.5735 1.9972,384.7046 C -2.3846,388.0471 -6.7761,391.377 -11.1658,394.7091 C -9.0728,396.4876 -7.2822,398.7994 -4.8985,400.1166 C -3.5904,400.206 -1.2222,399.2811 -0.7478,401.0922 C -0.5606,403.1985 -0.996,405.3981 -0.5825,407.4422 C 3.7253,411.4165 8.033,415.3907 12.3408,419.365 C 15.5502,417.6334 18.8665,415.8902 21.4028,413.3044 C 22.4936,412.8037 23.6308,414.0909 24.5695,413.908 C 25.4859,411.3715 26.636,408.8633 27.6287,406.3343 C 29.3932,407.9946 31.6786,409.1432 33.1354,411.0637 C 33.5239,413.0426 33.9126,415.0214 34.3012,417.0003 C 35.6307,417.0479 37.1171,417.9085 38.3857,417.3889 C 39.2865,416.5551 39.8208,414.3983 41.387,414.834 C 43.265,416.93 44.5903,419.5511 46.2877,421.8174 C 47.0968,422.7175 47.5435,424.196 48.5225,424.822 C 50.1688,424.8358 50.7112,422.8079 51.4081,421.6388 C 52.2844,420.0311 54.3025,421.0334 55.443,421.738 C 59.5315,423.4643 63.2945,425.9274 67.1674,428.0715 C 69.0553,427.5836 70.9433,427.096 72.8311,426.608 C 74.6993,432.1814 76.7143,437.7535 77.4039,443.6107 C 78.1121,447.5067 78.8202,451.4027 79.5284,455.2987 C 85.0736,457.7841 90.6057,460.2989 96.1558,462.7732 C 98.1698,470.3265 99.9898,478.1185 102.1089,485.5274 C 104.5611,485.4864 107.0988,485.9849 109.5007,485.5274 C 110.7015,484.7655 112.1134,484.3242 113.1718,483.3446 C 113.3501,480.9126 114.2618,478.4284 113.9419,476.0161 C 112.1111,472.5114 110.2377,469.0287 108.4341,465.51 C 113.0265,451.7289 118.0195,438.0721 122.4332,424.2379 C 125.2305,410.8689 128.0304,397.5004 130.8409,384.1341 C 133.7776,381.92 136.5436,379.4361 139.5804,377.4038 C 142.0143,376.8133 144.7352,377.0576 146.9546,375.9712 C 150.0859,372.3311 153.2171,368.6911 156.3484,365.051 C 155.2469,358.8397 153.9699,352.6447 152.9832,346.4227 C 153.4959,343.708 154.0085,340.9932 154.5211,338.2785 C 148.8467,336.3412 142.8359,335.1911 137.7256,331.9029 C 135.1112,330.6174 132.5712,328.8519 129.9113,327.8607 C 123.7571,328.9941 117.8506,331.2428 111.8241,332.8545 C 108.4865,332.8545 105.1489,332.8545 101.8113,332.8545 C 97.1035,325.7844 91.9378,318.9677 87.5006,311.7502 C 85.5105,305.37 82.987,299.1149 81.3639,292.6461 C 81.1477,291.2493 81.7931,289.1883 81.0498,288.1978 C 77.3647,287.1514 73.4535,286.6711 69.9481,285.1544 C 66.9103,282.8998 63.8764,280.6399 60.8339,278.3917 C 60.4318,275.1709 60.7695,271.7758 59.9626,268.6666 C 58.7964,267.1956 57.8619,265.3013 56.5593,264.0794 C 53.647,263.9302 50.2883,264.8828 47.9004,262.6785 C 44.2906,260.4279 40.6808,258.1774 37.071,255.9269 C 34.8855,256.8419 32.6999,257.7569 30.5143,258.672 L 30.5143,258.672 z " >
   <title>śląskie</title>
 </path>
  <path
   data-href="{% url "teryt:details" slug="łódzkie" %}"
   id="lodzkie"
   class="fil0 voivodeship"
   d="M 127.641,94.92 C 125.4289,96.1568 122.5748,95.9689 120.1005,96.5406 C 118.2697,96.3771 117.4986,94.3727 116.2062,93.3408 C 115.5379,92.1663 114.0125,92.0725 113.0146,92.8695 C 110.0077,93.8672 107.0009,94.8649 103.994,95.8626 C 107.1924,109.2416 110.3914,122.6204 113.6017,135.9966 C 111.249,141.6908 109.0866,147.4853 106.6233,153.1201 C 96.4525,163.7985 86.0568,174.2827 76.0279,185.084 C 70.52,193.6048 65.0431,202.1457 59.5357,210.6668 C 54.0142,211.7273 48.3646,212.2896 42.9167,213.6228 C 41.3677,214.4813 39.8188,215.3398 38.2698,216.1983 C 39.0211,219.6702 40.3121,223.1192 40.6593,226.6245 C 38.9989,230.5742 36.9462,234.4702 35.5307,238.4535 C 36.3253,243.7819 37.1198,249.1104 37.9143,254.4388 C 42.1807,257.0571 46.4471,259.6754 50.7135,262.2937 C 53.0727,262.2936 55.4319,262.2937 57.7911,262.2937 C 59.2234,264.5309 61.0555,266.592 62.2808,268.9496 C 62.4571,271.8214 62.6335,274.6932 62.8099,277.5651 C 65.8588,279.7065 68.6694,282.2385 71.8807,284.086 C 75.491,284.9771 79.1013,285.8682 82.7116,286.7593 C 85.0391,284.0794 87.1591,281.1052 90.4588,279.5615 C 94.3154,277.1604 98.0733,274.5278 102.0179,272.3065 C 105.9894,271.9096 109.9609,271.5128 113.9324,271.1159 C 128.601,285.9452 143.2934,300.7514 157.9689,315.5741 C 160.5045,315.9104 163.0401,316.2466 165.5756,316.5829 C 170.018,311.4327 174.7935,306.5406 179.0616,301.2556 C 182.2802,294.6705 185.5016,288.0867 188.7184,281.5007 C 190.6115,281.2652 192.479,281.0014 194.3739,280.7814 C 198.0086,284.8077 201.6588,288.8201 205.3045,292.8365 C 208.268,293.0663 211.2591,293.923 214.2096,293.6925 C 222.0616,290.0503 229.9136,286.408 237.7656,282.7658 C 242.178,276.4552 246.6123,270.1598 251.0113,263.8398 C 253.8666,263.6507 256.7218,263.4593 259.5772,263.2693 C 261.08,261.1785 263.22,259.4434 264.2989,257.1107 C 265.2109,247.6404 266.123,238.1701 267.0351,228.6998 C 264.0283,223.5271 260.7435,218.4696 257.9235,213.2217 C 257.6865,209.6002 257.4495,205.9787 257.2124,202.3573 C 255.5168,202.1083 253.8237,201.8416 252.1275,201.5966 C 252.4588,194.8631 253.207,188.1252 253.2995,181.3959 C 251.963,175.9101 251.0815,170.2997 249.4703,164.9032 C 245.475,158.7211 241.4797,152.5389 237.4845,146.3567 C 231.3411,145.0889 225.1979,143.8208 219.0546,142.5533 C 214.6151,130.9852 210.1865,119.4128 205.751,107.8432 C 201.5387,105.7139 197.549,103.008 193.2001,101.2336 C 182.5601,100.7107 171.8413,100.6018 161.2514,99.8148 C 152.3933,93.9333 143.5353,88.0519 134.6773,82.1704 C 132.3319,86.4202 129.9864,90.6701 127.641,94.92 L 127.641,94.92 z " >
   <title>łódzkie</title>
 </path>
  <path
   data-href="{% url "teryt:details" slug="świętokrzyskie" %}"
   id="kieleckie"
   class="fil0 voivodeship"
   d="M 299.893,164.034 C 299.0825,167.2573 299.5803,171.0361 297.2047,173.6567 C 295.1858,176.4994 293.3965,179.5901 291.1204,182.1911 C 284.7844,184.6378 278.2048,186.6113 272.0275,189.3765 C 267.7837,193.4113 263.5399,197.4461 259.296,201.4808 C 259.7399,205.2893 259.6757,209.2281 260.4816,212.9446 C 263.4165,218.0486 266.7966,222.9982 269.3915,228.2286 C 268.4325,238.1945 267.473,248.1605 266.5142,258.1265 C 264.4029,260.3106 262.8301,263.264 260.3874,265.0304 C 257.7113,265.2068 255.0351,265.3832 252.359,265.5596 C 247.9344,271.7649 243.7296,278.1894 239.1133,284.2375 C 230.7207,288.0076 222.4352,292.2121 213.9779,295.7138 C 210.7594,295.171 207.3329,295.2138 204.2379,294.2421 C 200.702,290.4677 197.2742,286.3325 193.6711,282.7823 C 192.3026,283.0717 190.1063,282.3599 189.736,284.3026 C 186.5976,290.555 183.7665,297.0298 180.3484,303.1377 C 175.7723,308.2648 171.2,313.3955 166.6092,318.5093 C 163.4031,317.9047 160.0284,317.9182 156.9271,316.988 C 142.4053,302.3284 127.8836,287.6688 113.3619,273.0093 C 109.6714,273.5239 105.847,273.4499 102.2586,274.3435 C 97.6089,277.45 92.6331,280.1537 88.234,283.5531 C 86.7861,285.3997 84.8551,287.0568 83.6955,289.0166 C 83.4337,291.8219 84.0999,294.5199 85.2003,297.0653 C 86.9301,301.942 88.2413,307.0163 90.3126,311.727 C 94.5947,317.9427 98.8768,324.1585 103.1589,330.3743 C 107.3737,330.2051 111.7802,331.0398 115.7584,329.2314 C 120.6034,327.7519 125.4602,326.1028 130.477,325.3885 C 132.9367,325.9661 134.894,327.7551 137.2076,328.7242 C 140.9366,330.9081 144.7759,332.9162 149.0061,333.88 C 155.88,336.1337 162.9238,337.8974 169.8749,340.0312 C 187.4498,345.1571 205.0222,350.2926 222.6016,355.4022 C 225.7227,359.5207 229.3109,363.3815 232.1432,367.6474 C 232.4905,372.0477 232.2056,376.5625 232.9543,380.8903 C 236.18,386.3432 239.3069,391.968 242.5942,397.3138 C 245.0109,397.1739 247.7773,398.0355 249.7173,396.1071 C 256.4358,391.6792 262.9586,386.9309 269.8387,382.7792 C 281.0824,377.5314 292.3795,372.329 303.5972,367.0687 C 306.6162,365.2032 309.9698,363.9951 313.0969,362.315 C 317.4424,360.1177 322.0209,358.318 326.1332,355.7586 C 340.995,341.1318 355.8569,326.505 370.7187,311.8782 C 366.9656,297.3085 363.0865,282.7427 360.1953,267.9954 C 359.5391,264.8644 358.6807,261.7034 358.3246,258.5399 C 360.5357,252.9724 362.5372,247.295 364.8979,241.805 C 368.5083,238.415 372.1188,235.025 375.7292,231.6351 C 373.8764,226.9494 371.3882,222.5008 370.0243,217.6345 C 369.4532,215.3578 369.3764,212.7662 368.49,210.6845 C 358.1731,203.6655 347.65,196.9154 337.4728,189.7125 C 328.0849,179.8012 318.8323,169.7153 309.3598,159.9131 C 307.8661,159.0929 306.3724,158.2728 304.8788,157.4526 C 303.2169,159.6463 301.5549,161.8402 299.893,164.034 L 299.893,164.034 z " >
  <title>świętokrzyskie</title>
  </path>
 </g>
</svg>